/* XPM */
static char * collect_xpm[] = {
"64 64 249 2",
"  	c #DB8A39",
". 	c #D98634",
"+ 	c #DF913F",
"@ 	c #DE8D3C",
"# 	c #D98738",
"$ 	c #DE9342",
"% 	c #DF9444",
"& 	c #180726",
"* 	c #150424",
"= 	c #0E001D",
"- 	c #11001F",
"; 	c #170929",
"> 	c #DD8D3A",
", 	c #DC8B39",
"' 	c #DB8D3D",
") 	c #DE8F41",
"! 	c #E09342",
"~ 	c #E09442",
"{ 	c #190827",
"] 	c #DB8C38",
"^ 	c #D68432",
"/ 	c #1C0C2B",
"( 	c #210E2C",
"_ 	c #251332",
": 	c #23112E",
"< 	c #DF9442",
"[ 	c #2A1935",
"} 	c #331E3A",
"| 	c #33233E",
"1 	c #342541",
"2 	c #3A2644",
"3 	c #3B2945",
"4 	c #2C1631",
"5 	c #4A344D",
"6 	c #523C57",
"7 	c #54425D",
"8 	c #5C4864",
"9 	c #544C63",
"0 	c #4B3954",
"a 	c #654B63",
"b 	c #6B536B",
"c 	c #71566E",
"d 	c #715F7A",
"e 	c #7A6A81",
"f 	c #695872",
"g 	c #694F68",
"h 	c #2E213D",
"i 	c #271A37",
"j 	c #2D1E3A",
"k 	c #745C74",
"l 	c #816D84",
"m 	c #85738B",
"n 	c #887790",
"o 	c #8B7C93",
"p 	c #453651",
"q 	c #5A5469",
"r 	c #52495E",
"s 	c #4B3B55",
"t 	c #43334E",
"u 	c #4C435B",
"v 	c #5B4C64",
"w 	c #6B5B72",
"x 	c #89768D",
"y 	c #95869A",
"z 	c #998C9D",
"A 	c #9C94A4",
"B 	c #A39DAD",
"C 	c #A39EB0",
"D 	c #A5A3B2",
"E 	c #7D697E",
"F 	c #3D2D4A",
"G 	c #E09444",
"H 	c #7B7585",
"I 	c #898698",
"J 	c #847A8B",
"K 	c #6D667A",
"L 	c #62546B",
"M 	c #74647B",
"N 	c #776879",
"O 	c #8D8392",
"P 	c #A39BA5",
"Q 	c #A99AA3",
"R 	c #ADA9B1",
"S 	c #B5BAC6",
"T 	c #B7BBC5",
"U 	c #C2CCD4",
"V 	c #BDC4CB",
"W 	c #B3AFB8",
"X 	c #988A95",
"Y 	c #ADB3BB",
"Z 	c #BBC5C7",
"` 	c #A5A2AB",
" .	c #7D6C83",
"..	c #97929D",
"+.	c #9C99A5",
"@.	c #CAD7D8",
"#.	c #B4B4BE",
"$.	c #ABA4AB",
"%.	c #5C5B70",
"&.	c #C8CCC7",
"*.	c #ABAAB7",
"=.	c #B7B8B9",
"-.	c #867484",
";.	c #7C657C",
">.	c #A9A4A8",
",.	c #8A7B8D",
"'.	c #928294",
").	c #917E91",
"!.	c #7D7989",
"~.	c #8F6971",
"{.	c #8F8FA1",
"].	c #745A6B",
"^.	c #331C34",
"/.	c #6C5569",
"(.	c #694C63",
"_.	c #66495C",
":.	c #5E425A",
"<.	c #543346",
"[.	c #5A4056",
"}.	c #644658",
"|.	c #624459",
"1.	c #5D3E51",
"2.	c #462C44",
"3.	c #3B2138",
"4.	c #54364B",
"5.	c #5C3B4E",
"6.	c #5B3442",
"7.	c #2A152F",
"8.	c #46283A",
"9.	c #5B2E35",
"0.	c #652C34",
"a.	c #633843",
"b.	c #693535",
"c.	c #7E7D90",
"d.	c #582734",
"e.	c #793831",
"f.	c #3F314C",
"g.	c #4C1F2D",
"h.	c #5C0F17",
"i.	c #581A26",
"j.	c #631C24",
"k.	c #6A2728",
"l.	c #793626",
"m.	c #691616",
"n.	c #751911",
"o.	c #741B11",
"p.	c #7A2516",
"q.	c #883518",
"r.	c #9E4214",
"s.	c #650E0F",
"t.	c #6D110C",
"u.	c #7D220E",
"v.	c #7A1D0D",
"w.	c #842A12",
"x.	c #8B2C12",
"y.	c #76170C",
"z.	c #8A2B0E",
"A.	c #73444A",
"B.	c #913010",
"C.	c #8A4E4F",
"D.	c #9B3D11",
"E.	c #A64716",
"F.	c #A6460E",
"G.	c #973513",
"H.	c #8A270D",
"I.	c #82240D",
"J.	c #831D08",
"K.	c #793C45",
"L.	c #955A54",
"M.	c #A25C50",
"N.	c #A84F24",
"O.	c #B35413",
"P.	c #B85917",
"Q.	c #BA6525",
"R.	c #BD6218",
"S.	c #B65B24",
"T.	c #822411",
"U.	c #A47C79",
"V.	c #B07251",
"W.	c #B46732",
"X.	c #C97B35",
"Y.	c #CC813B",
"Z.	c #752828",
"`.	c #865963",
" +	c #97848D",
".+	c #B28A7B",
"++	c #C48858",
"@+	c #D88734",
"#+	c #D49553",
"$+	c #E8A24C",
"%+	c #D48C43",
"&+	c #CA742A",
"*+	c #C46C27",
"=+	c #C56718",
"-+	c #AB4A12",
";+	c #A43D13",
">+	c #95280C",
",+	c #852D24",
"'+	c #997C84",
")+	c #A98E8C",
"!+	c #CF9B66",
"~+	c #DD923E",
"{+	c #E49C46",
"]+	c #EBAB58",
"^+	c #EDB467",
"/+	c #D27B26",
"(+	c #CD721A",
"_+	c #B25214",
":+	c #A23B0D",
"<+	c #9A574B",
"[+	c #A89499",
"}+	c #D47A1E",
"|+	c #CC7017",
"1+	c #933824",
"2+	c #A98785",
"3+	c #958A9C",
"4+	c #BD9882",
"5+	c #E3963A",
"6+	c #DB8B35",
"7+	c #B9ABA6",
"8+	c #DA8429",
"9+	c #9A3A0E",
"0+	c #94340D",
"a+	c #9B777C",
"b+	c #932A0D",
"c+	c #B3A3A3",
"d+	c #98492D",
"e+	c #883426",
"f+	c #E0913D",
"g+	c #C09A81",
"h+	c #D3812F",
"i+	c #CE7E2D",
"j+	c #CDB293",
"k+	c #C5B6A8",
"l+	c #D8A76F",
"m+	c #D8C19D",
"n+	c #D78833",
"o+	c #F0B767",
"p+	c #DD903A",
"q+	c #D4C4AB",
"r+	c #D5D8CA",
"s+	c #E39849",
"t+	c #E39847",
"u+	c #D58433",
"v+	c #7A4A56",
"w+	c #DF9344",
"x+	c #A17E81",
"y+	c #B1ACB4",
"z+	c #7A4F62",
"  .   + @   # # # @ @ @ @ @ $ $ $ % $ $ $ $ $ & * * = * * * - * - - * - - * - - ; ; * - - - - - - - - * & > > > # . # , , @ @ @ ",
", @ @   .   , @ + $ $ $ ' @ ) $ $ $ ! ~ $ $ $ { & * * * * * * * * * * * * * * * ; ; ; ; ; ; ; ; ; ; * ; { > ] . ^ . # @ ! @ . ^ ",
"@ , . .   @ @ + + $ $ $ $ $ + + + , > + + > > / ( _ : _ _ _ _ _ _ _ _ _ _ _ _ _ _ _ _ _ _ _ _ _ _ : : ( / # # , , @ ! $ # ^ . @ ",
">   @ + + + < $ $ $ $ + + + @ > @ @ @ @ @ @ { _ [ } | 1 2 2 2 3 3 3 3 3 2 3 3 3 2 2 2 2 1 2 1 2 2 | | [ _ { > @ ! @ # # > @ >   ",
"+ $ $ $ $ = = = = = = @ @     # ^ = = = = - / 4 2 5 6 6 6 6 7 7 7 7 7 8 6 9 7 7 6 7 7 7 6 6 6 6 6 0 5 2 [ { - = = - - @ @   #   ",
"$ % % $ & & / - & & & & . . . # & & & * * { : | 5 a b c d d d d d d d d d d d d e e e f e f e e c g 8 5 2 : * * * * & *   @ @ @ ",
"$ $ ~ + h h h h h i i _ : # , _ _ i [ 4 i j 3 0 a k e l m n o o o o o o o o o o n o n n n n n n m e k a 0 2 j 4 4 i [ i $ < $ $ ",
"> > > p 9 q q q r s p 3 h ( / h 3 t 0 s u u v w e x y z A B C C C C B C D D D C C C C C C C C A z y x E f 8 7 u 0 0 t F | G G ! ",
"= { h r H I I I J K L s 1 : : 1 u L w M N H J O y P Q R S S S S S S T T U U V V V T T T S S S W R B P X O J l e K K L 7 F i * = ",
"= { h q I Y Z Z ` X H v t 4 i F v  .O z ..+.Q B B R W T T U U U U U U @.@.@.@.@.@.U U U U U U T #.W $.$.` P P z X O  .L t 4 * - ",
"= = h %...Z @.&.*...e L p 1 2 s w J z P $.$.$.R R R W #.T V T U U U @.@.@.@.@.@.@.@.U U U V V V =.W R $.R R B $.P z -.L t i & - ",
"= / h q I Z Z =.+.E f 9 7 6 r L ;.x y z Q P P P Q Q Q C *.*.S S S S T T S U U U T S S S S S W *.` P P P P Q P P A y l L t 4 * - ",
"= / h q O =.=.>.H r s u v f K N  .m m ,.o o '.'.).'.'.y y z z A C C D D *.D D D D D C C o C ).).y y ).'.).).).).).x ;.8 3 _ { - ",
"= = h r !.` >.I L t 1 0 L  .J x  .~.;.;.;.~.;.;.;.;.;.;.e l m m o o o o {.o o o o o n n n  .l l ;.;.;.;.e ~. .l ;.;.b 6 2 : & - ",
"= / h r !.` ` O L t 3 0 L H x -.;.k c c b k c c c c c c c c k k e  . .l  .e e e n e e e e e g c c c c c c c c ].c c a 0 | : * - ",
"= = ^.q I *.=.+.E r s 7 v w w c /.(.(.(.(.(.(.(.a (.(.(.(.a (.g f f d f e e e g e e f g 8 a 8 a _.a (.(.(.(.(.g g (.:.<.} : * * ",
"= { h q I =.Z Y ..H f v 7 u s 6 [.}.|.|.|.|.|.|.}.:.}.[.}.[.1.a a (.a a a a a g a _.a _.}.}.[.[.:.|.|.:.}.}.[.}.}.}.[.2.h ( & - ",
"= = h q I =.Z Z D y  .L 0 | j 3.2.4.5.1.1.5.5.5.5.[.5.5.5.5.1.1.1.1.[.1.[.1.1.1.[.[.[.[.6.[.[.[.5.5.5.5.6.[.[.[.[.6.4.3.4 ( { - ",
"= { h r !.Y Y Y B I  .v t [ ( 7.3.8.<.<.4.6.<.<.6.6.9.9.6.6.9.6.6.6.0.6.6.a.6.6.b.5.b.6.b.5.[.b.6.6.6.6.6.[.9.[.9.4.2.3.4 / & - ",
"= / h u %.c.I c.!.K L u | : { ( 4 3.8.8.8.2.8.d.8.d.8.9.d.d.d.0.d.d.d.d.d.0.0.0.0.b.b.b.b.b.e.b.b.b.b.0.6.8.8.8.8.3.3.3.7./ & & ",
"; / h f.u 9 q 9 u u p 2 h _ / / ( 4 4 3.3.8.8.g.g.g.h.i.i.i.j.g.j.i.j.j.j.j.k.k.k.l.l.l.l.l.l.l.l.l.l.9.9.8.8.3.^.^.4 7.( , > > ",
"# # # h h h h h h i i _ / / / ; ( ( ( 7.3.3.g.g.g.h.h.h.m.m.m.m.m.m.m.m.m.m.n.o.p.p.p.p.q.q.r.l.q.q.p.k.9.g.3.^.7.( ( { . , , , ",
". ^ ^ > ; ; = ; ; ; ; ; / / / ; - { / 7.3.8.8.d.i.m.s.m.t.o.u.o.o.m.n.n.n.n.n.v.p.w.q.w.q.q.q.x.w.p.p.k.9.8.3.3.7.( & * . # # # ",
". . ^ # @ = = = = = ; ; ; / ; ; { - { h | 5 5.9.9.m.o.u.u.u.u.u.u.u.v.y.y.y.y.y.v.u.u.u.w.z.w.u.p.o.p.0.b.9.u 3.4 { * * # # # . ",
", , ^ ^ . > * * * * ; ; / / / ; - { : h p 8 _.A.e.p.w.x.q.r.r.q.B.z.w.u.u.y.y.y.n.n.v.u.u.u.p.o.n.m.m.0.a.a 7 t 3.: * - # # . # ",
", . . # # . . # # # /     # / ; - / 7.| 7 f ].C.C.D.r.r.E.E.r.F.r.r.G.z.H.I.J.v.n.n.o.o.o.o.o.t.s.h.j.0.K.c f 7 2 : * -   . ^ . ",
"! >   > # . . . # . # ^ ^ # ; * - ; i F v M ~.L.M.N.N.O.P.Q.Q.R.S.N.E.r.G.x.x.x.w.w.T.T.T.p.u.y.t.s.m.K.c l e 8 f._ ; - @ @ @ @ ",
"+ @ @ + > @ + @   .   @ > , ; ; * ; _ f.q  .J U.V.W.Q.Q.X.Y.Y.Y.Q.Q.Q.S.N.N.E.N.r.r.D.D.G.B.z.I.n.n.Z.K.`.l e L f.i * - + $ G + ",
"$ $ @ @ + G G ~ @ @ + ~ $ @ ; ; * & i f.%.m  +.+++W.Y.@+#+$+#+#+%+X.X.&+X.&+*+*+=+P.P.O.-+-+;+>+>+T.,+K.~.'+l f p i * - @ $ ~ + ",
"@ @ @ @ @ $ < < $ $ $ $ < % ; * = & i p f m )+.+!+%+~+{+]+^+^+]+{+%+@+@+X.@+X./+/+(+(+=+R.O._+:+>+>+,+<+~.'+m f p i & - # . , @ ",
".   > > @ @ @ $ $ $ + @ $ ~ $ ; - & i s d O [+.+!+%+~+$+]+^+^+^+{+{+{+@+@+@+@+/+}+}+|+=+R.O.-+:+>+>+1+<+~.2+O K s i & = @     # ",
"@ @ @     . .   > >   . . . # * * & i s K 3+[+4+++Y.~+5+$+]+]+$+{+6+/+/+&+&+&+*+=+R.R.O._+-+:+>+>+J.,+C.U.X I e s i * - # # , + ",
". # > @ > , , > + @ > >   . # - = & [ u E ..7+.+++X.8+8+5+5+5+5+8+/+(+=+S.S.P._+E.E.r.r.9+0+z.I.y.y.Z.C.a+....N u j & = , ^ ^ ^ ",
"@   .   # # # > > > @ $ @   @ * = & h u H ..7+4+++*+|+|+8+8+8+8+/+=+R.O.;+;+;+>+B.b+z.z.z.z.I.y.t.t.j.C.'+[+P H r j * = @ ! @ @ ",
"> , @ @ @ @ @ > > > > > , , , - = { i r !.P 7+4+V.Q.O.O.|+|+|+|+R.P.O.:+>+>+>+>+H.H.H.>+z.z.H.u.o.m.Z.C..++.P !.r j * = # > . , ",
"  # > > , , > > > # #   # > , - = & h r !.` c+.+V.d+9+F.F.O.O.O.-+;+:+:+>+>+>+>+>+>+0+>+9+D.9+B.w.p.e+L..+>.P !.r j { = > > # # ",
"> > + > > > + + > > > > > , > - = * h r !.` c+ +L.e+p.z.0+9+9+D.G.G.G.>+>+>+>+>+:+:+;+-+O.O.O.-+F.r.d+M.)+7+P !.r h & = + f++ + ",
", , # # > , > , # # # , # . . * - { j r H ` [+.+C.k.m.o.u.I.H.z.H.H.H.>+>+>+>+>+;+_+P.=+|+|+|+|+P.O.Q.V..+7+P !.u i & = , , , > ",
", > , # # # . ^ ^ ^ ^ # ^ ^ ^ * - & j r !.P Q '+C.k.s.t.y.I.H.H.x.x.>+>+;+>+;+N._+R.|+}+}+8+8+}+|+=+&+++g+7+` !.r h & = , , . # ",
". # # ^ ^ ^ ^ ^ ^ ^ h+i+h+^ # - = & j r H P Q 2+C.Z.y.v.I.0+0+9+D.;+;+N.;+S.S.S.*+(+}+8+5+5+5+5+8+/+Y.!+j+k+*.c.r h { = ^ ^ ^ ^ ",
"# , # ^ ^ ^ # ^ h+h+i+i+^ > f+- - & j r !.P [+2+L.,+T.H.>+;+F.O.O.P.=+=+&+&+&+&+/+/+~+{+$+]+]+$+5+6+#+l+m+Z Y c.9 h * = ^ ^ ^ ^ ",
". n+h+h+^ h+^ ^ n+# # , , > > - - & j r !.P c+2+M.1+>+>+:+_+O.=+=+(+(+/+/+@+@+@+@+~+~+{+]+o+o+]+$+~+$+l+m+Z S I q h * = ^ ^ ^ ^ ",
"p++ p+> , > > > p+p+f+f+f+f+! - - ; j 9 J B c+2+M.1+>+>+:+F.O.R.=+|+}+/+/+/+6+/+@+~+~+$+]+o+o+]+{+~+#+l+q+r+Z {.q 1 * = > > > > ",
"G s+t+G ~ G ~ t+t+G G G ~ ! G * - * h 9 I *.k+)+<+,+J.J.H.0+:+F.O.P.P.=+*+*+&+&+/+/+/+~+$+]+$+$+6+u+~+l+q+r+Z {.%.1 * = t+G ~ ~ ",
"@ @ @ @ @ + @ @ @ + + @ > > > - = * 1 q I Y =.[+L.Z.t.t.y.v.H.z.0+9+F.F.E.-+P.P.*+=+(+/+/+{+5+8+8+8+Y.!+q+r+@.+.%.h & = + + + @ ",
"  > # # # . # # # . # . # # # - = * 1 q I S =.[+`.0.s.s.s.m.m.n.u.z.B.0+G.;+;+;+P.P.*+/+/+/+/+/+|+R.Y.!+m+r+Z +.%.h & = > . #   ",
"    . ^ ^ ^ . . ^ ^ ^ ^ # # . - = ; 1 9 I *.=.[+~.K.k.j.j.j.j.Z.l.,+e+e+1+1+1+N.S.S.*+/+5+@+@+/+Y.W.Y.!+m+Z Z I q h { = , . . # ",
"  #   . .               > . . - = ; i u H A D P '+~.`.v+v+v+v+C.C.C.<+<+<+M.M.V.V.V.++++#+]+l+!+!+!+!+g+j+=.+.H r h & = > #   > ",
"@ @ @ > > @ @ + + @ > @ w+) # * * * _ p f J z A P [+z )+'+'+'+'+a+x+U.x+U.U.U.2+2+4+g+g+j+j+m+k+m+m+m+7+7+[+O f t i & - @ @ + + ",
"! ~ > + > # @ f+@ @ @ @ $ @ . * * * 4 3 6 d ,.z $.#.#.#.y+c+Q Q Q c+c+c+7+c+7+c+c+c+k+k+k+&.r+r+r+r+q+=.[+O K 7 3 : * = ! $ + $ ",
"G t++ + > , > @ @ @   . # # ^ ; * * : } 5 g ;.'.B S T T #.y+R R y+y+y+y+y+y+*.*.y+y+W T &.U T U @.r+Z Y X E a 5 3.: * * s+G @ @ ",
"G ~ > > > > @ @   . ^ . . . . * * & ( ^.2.|.b l '.P $.D B P P B Q Q $.C C Q C C B B C D *.*.S S Y Y ` ..l ].:.2.j : * - G $ @ + ",
"@ + > @ @   . . ^ . . . # , # ; * * ( ^.2.1._.c N ~.J J  +O o y ).y y z ).A y z z z y 3+).A z o O O .+K L :.5.3 4 ( * * ! + @ > ",
"@ @   # # # ^ . . # # . # # # ; * & ( 4 3.<.5.|._.v (.].].N  .l n n n n n n n n n n n m l l  .e /./._.}.}.[.4.8.^.( * * > > > @ ",
". . ^ ^ . # #   # > > @ + @ @ + * & ( 4 3.2.<.4.[.5.}._./.k k  .l m n m m m m m m m m  .e k k z+}.[.[.[.9.<.8.3.4 / * * >       ",
". # >   #   @ + + ! + + + @ + + * * ( 7.^.} 8.2.<.[.}._.c k ~. .m n o n o o o o o o m m l e k b /.}.[.9.5 3.3.h 7./ { # # # # ^ ",
"@ + $ ~ + > > > # . ^ # # ^ ^ ^ ^ h+/ ( : 4 ^.2.6 |.g c k e l x o ).3+3+y y y y y y '.o m l e k c g a 4.2.^.4 : ( { . # # # # > ",
"@ > # # # ^ ^ ^ . ^ ^ # # # # , > , > { / ( 4 2 6 (.c d d  .l m o ).z z z z z z z y y O n l e e k c a 6 2 4 ( { { + @ + ! f+> > ",
"^ ^ # # # , # ^ , > > > > > > > p+p+> > * & : 1 5 :.b c k k d e n n n o ,.o n o ,.o J m e d d f c g 8 5 3.: & * > >   # # # # ^ ",
"# > > + > > > # ^ . # . . . # # . . # . # * / } 2.0 6 7 7 7 8 L f f f f w w w w w w w L L 8 8 6 7 6 p 2.j / ; ^ ^ # ^ ^ ^ # # > ",
"+ + p+> # # . ^ . , @ @ $ @ > @ , , ,   . , ( _ } | 2 2 3 3 F t t p 0 0 0 0 p 0 0 p p t t F 3 3 2 2 | } _ / # . ^ # > # , > > > ",
"> # # . . , , @ @ @ >         , , > > > > , > : ( : : : : _ _ _ i [ _ i i _ _ i [ [ i _ _ _ _ _ _ : : ( ( > , , > > > > + + + # ",
"^ # > @ @ + >     > > @ @ >         @ @ @ ,   ; * * ; ; & & & * * & { * * & & * & * & * ; * * * * ; & & { > > p+f++ > > > > # ^ ",
"> ! + > # # > $ + >       @ > > @ > > @ @ + @ * * * * * - - - - - = = = - - = = = - = - = * - - * - * * & + @ @ + p+> # # # , , "};
