/* XPM */
static char * exit_xpm[] = {
"64 64 145 2",
"  	c #DB8A39",
". 	c #D98634",
"+ 	c #DF913F",
"@ 	c #DE8D3C",
"# 	c #D98738",
"$ 	c #DE9342",
"% 	c #DF9444",
"& 	c #D68432",
"* 	c #D3812F",
"= 	c #E08F42",
"- 	c #E09342",
"; 	c #DC8B39",
"> 	c #DD903A",
", 	c #DD8D3A",
"' 	c #DB8D3D",
") 	c #DE8F41",
"! 	c #E09442",
"~ 	c #E09444",
"{ 	c #DB8C38",
"] 	c #DF9344",
"^ 	c #E39849",
"/ 	c #E0913D",
"( 	c #DF9442",
"_ 	c #E39749",
": 	c #DC8B3C",
"< 	c #D37E2E",
"[ 	c #D47F30",
"} 	c #35022A",
"| 	c #310026",
"1 	c #2D0022",
"2 	c #2A001E",
"3 	c #4B1D41",
"4 	c #4E2145",
"5 	c #491A3F",
"6 	c #441439",
"7 	c #411337",
"8 	c #5C3253",
"9 	c #6E4966",
"0 	c #734E6B",
"a 	c #6C4563",
"b 	c #643A5A",
"c 	c #76516E",
"d 	c #7C5974",
"e 	c #795671",
"f 	c #8C6C84",
"g 	c #9F8599",
"h 	c #A4899D",
"i 	c #977990",
"j 	c #89637E",
"k 	c #775470",
"l 	c #85637C",
"m 	c #96798F",
"n 	c #A68CA0",
"o 	c #AE97A9",
"p 	c #B39CAD",
"q 	c #AE98A9",
"r 	c #AB93A6",
"s 	c #A2849A",
"t 	c #876780",
"u 	c #C5B3C1",
"v 	c #CEBDCA",
"w 	c #BEAAB9",
"x 	c #A98A9F",
"y 	c #95738C",
"z 	c #BBA2B3",
"A 	c #DACCD6",
"B 	c #DED2DB",
"C 	c #DCCED8",
"D 	c #E5DAE2",
"E 	c #D3C2CD",
"F 	c #F3EBF1",
"G 	c #F5EEF3",
"H 	c #F0E6ED",
"I 	c #EFE5EC",
"J 	c #EDE4EA",
"K 	c #D6C5D1",
"L 	c #AA8CA1",
"M 	c #E39847",
"N 	c #ECE3E9",
"O 	c #F9F3F7",
"P 	c #FBF4F8",
"Q 	c #F0E4EB",
"R 	c #F0E3EB",
"S 	c #F5EAF0",
"T 	c #EBE1E8",
"U 	c #B79FB0",
"V 	c #F6EFF4",
"W 	c #E9D9E3",
"X 	c #E5D4DF",
"Y 	c #E3D1DD",
"Z 	c #E4D7E0",
"` 	c #EADBE5",
" .	c #ECDBE6",
"..	c #CCB6C5",
"+.	c #714766",
"@.	c #E7DCE4",
"#.	c #D3BBCB",
"$.	c #EADCE5",
"%.	c #F1E8EE",
"&.	c #DAC2D1",
"*.	c #E1CDDA",
"=.	c #C2A6B9",
"-.	c #E3D2DD",
";.	c #ECDFE7",
">.	c #D8BFCF",
",.	c #ECDFE8",
"'.	c #98758F",
").	c #E7DCE3",
"!.	c #CCBAC7",
"~.	c #E3D1DC",
"{.	c #D8C0CF",
"].	c #9A7790",
"^.	c #B194A8",
"/.	c #C5ADBD",
"(.	c #E0C9D7",
"_.	c #9B7B93",
":.	c #C0A4B7",
"<.	c #CE7E2D",
"[.	c #79536F",
"}.	c #825D79",
"|.	c #946F89",
"1.	c #532849",
"2.	c #3D0D32",
"3.	c #26001B",
"4.	c #5A2F50",
"5.	c #582C4E",
"6.	c #683D5D",
"7.	c #6A3F60",
"8.	c #603556",
"9.	c #542649",
"0.	c #35082A",
"a.	c #D78833",
"b.	c #38062D",
"c.	c #3A082F",
"d.	c #502346",
"e.	c #9D8096",
"f.	c #C4B1BF",
"g.	c #8B6781",
"h.	c #47193C",
"i.	c #B89EB0",
"j.	c #5F3955",
"k.	c #EAE0E7",
"l.	c #FEFCFE",
"m.	c #F6F0F5",
"n.	c #FAF5F9",
"  .   + @   # # # @ @ @ @ @ $ $ $ % $ $ $ $ $ $ @ @ $ + @ @   # #   $ + & * = - ; & ; & # > , # , + + @ , , , , # . # ; ; @ @ @ ",
"; @ @   .   ; @ + $ $ $ ' @ ) $ $ $ - ! $ $ $ $ $ $ $ + @ @ @ @   # @ - # * . ~ @ . & . . { { # , + , , , , { . & . # @ - @ . & ",
"@ ; . .   @ @ + + $ $ $ $ $ + + + ; , + + , , + + + - ] @ + $ $ @ # . @ , & & @ ^ / , . & # # . # # # # # # # ; ; @ - $ # & . @ ",
",   @ + + + ( $ $ $ $ + + + @ , @ @ @ @ @ @ @ @ @ , $ - $ + $ $ @ , &   @ / . & - _ ~ @ ; ; ; . & . ; ; # , , @ - @ # # , @ ,   ",
"+ $ $ $ $ + $ @ + + + @ @     # & . . .     @ $ @ @ @ + @ @ ' + $ @ # # @ $ + # & . : $ - ) - - + - + @ @ @ , # # , ; @ @   #   ",
"$ % % $ $ @   @ @   # . . . . # # & & # & & .   @ , , + $ ~ $ + @ + +   #   , @ , ; ;     .     ; # #   # # ; ;     .     @ @ @ ",
"$ $ ! + @ ;     . & & . # # ; # # # # # # . & & . # @ ; , ! $ $ @ + $ @ @   . .   , @ @ + $ + @     ;     # . #   ; @ + $ ( $ $ ",
", , , @ @   . . # . ; , # & & & & < * & # , ; & & .   @ @ + + $ $ $ $ @ + @ @   . . . .     . . . # ,   @ , @ - ! ( $ + ( ~ ~ - ",
"; @ @   . & . ; ; ; . & * < * & & & & & & #   # & & # @ @ , , , + $ $ $ $ @ @ , + + @ @ @ $ @ @ @ @ + + - $ + $ $ $ $ $ - @ $ @ ",
", @   & . & . @ , ; # # # . # # . # # # . . . . & . &   $ @ + @ @ + + @ $ $ $ $ $ @ @ + ( ! $ + $ + + + + + @ ' $ ] ~ $ @ @ + + ",
"@ )   & & & < & . # # ; # . # # # . & & & & . # # # & # $ $ @ @ @ , @ + + + @ $ - $ $ $ $ % $ $ ( $ $ $ $ $ + $ _ ~ - - + > , @ ",
"@ @ @ # # . & & & & & & & & & & & & & # # # . # . & & &   $ $ ) @ @ @ ; ; ; ; , , + $ $ $ ~ - ! ~ ~ ] ] ~ ~ ~ - $ $ - $ , , ; ; ",
"@ @ + @ + $   & . # # & . & & & & ; . . . & & & . & & [ .     $ $ } } } } } } } } } } > , @ ! ! - + + $ + + @ , @ @ $ ~ $ + , , ",
", , @ + @ ) $   . & . . # # & # # # . . . & & & . . & #   ' @ @ } } } } } } } } } } } } , , + + $ $ ! - - - - - @ @ $ ! + + , , ",
"@ @ @ @   ) ] $ @   . & & & & . . # #     . . . . #   ) $ ) ) : } } } } } } } } } } } | ; , , , , , @ + + + + @ , ,   , , , ; / ",
"@ ;   @ ) ) ) ] ~ @ : @         # #             ' ) ) @ @ @ @ 1 1 | | | | 1 1 1 1 1 1 1 1 + , , , , , @ @ , , , , , @ + @ @ , + ",
"        $ @ @ @ @ @ @ @         @ @ @ @ @ @ @ @ @ @ ; @ + 2 2 1 1 | | | 1 1 1 1 1 1 1 1 1 2 2 2 2 2 2         @   '   # # #     ",
"& & & & #   ' @     ; ; ; @ ;   , @ @ + + $ @ $ @ ; @ @ } } } } } } } } } } } } } } } } } } } } } } } } . . . . . # # . # # & & ",
"# # # . & & . . & .   #             .     ,           . 3 4 3 5 6 6 7 6 5 3 4 4 4 4 4 4 4 4 4 4 4 4 4 3 . # . . . . # . & & & # ",
"; # . . . ,   . . . & & & . . # # . . . . . . & & & . 8 9 0 0 a b 8 8 b 9 c d d d d d d e e e e e e c 9 8 * < < & & & . ; , , , ",
", , ; # # . . # . . # . # # # # # # # # # & & # # } 3 9 f g h i j k e l m n o p p q q o o r r o q r s t a 3 } & & & & # # ; , , ",
"# # # & # # , @ @ ; , ; , , , ,     ; @ ;     ; 2 } 4 c h u v w x y y s z v A B B C A A A A A B B A u s c 4 } 2 & & # . . ; ; ; ",
". & & , + @ @ ; @ @ @ @ @ @ , , @ + @ @ @ @ @ @ 2 } 4 e o A D E z s s p v D F G F H I I I I H G G J K L c 4 } 2 ; @   . . # # # ",
". . & # @ + ; . , + $ + + M ~ ! + + $ + , , @ @ 2 } 4 d p B N A w x x z E J O P G H Q N N R H S G N K L c 3 } 2 # ; ; ; # # # . ",
"; ; & & . , @ ;   , @ , @ + @ @ + + @   ; @ @ ; 2 } 4 d p B T A w h s U E N V G N W X Y Y Y Z `  .Y ..s +.3 } 2 # . & . # # . # ",
"; . . # # . . # # #       # , ;     , ,   # # . 2 } 4 d q A @.K z s s p #.$.%.N Z A K &.&.&.K A *.&.=.i 9 5 } 2 @ @       . & . ",
"- ,   , # . . . # . # & & # . & & . . # . # # . 2 } 4 d q A D K z s s p #.@.H N -.&.#.#.#.#.#.&.&.#.z m a 5 } 2 $ + + + @ @ @ @ ",
"+ @ @ + , @ + @   .   @ , ; #   , ,     , ; @ , 2 } 4 d q A D K z s s p v @.H ;.*.&.#.#.#.#.#.>.&.#.z y a 5 } 1 @ @ $ $ + $ ~ + ",
"$ $ @ @ + ~ ~ ! @ @ + ! $ @ @ + $ + + $ ! ~ ~ $ 2 } 4 d q A D K z s s p #.@.H ,.-.&.#.#.#.#.#.>.&.#.z y a 5 } 2   , , @ @ $ ! + ",
"@ @ @ @ @ $ ( ( $ $ $ $ ( % $ ( $ $ + @ + $ $ $ 2 } 4 d q A D K z s s p #.@.H ,.Y &.#.#.#.#.#.&.&.#.z m a 5 } 2 @ ,   # # . ; @ ",
".   , , @ @ @ $ $ $ + @ $ ! $ + + $ + @ @ @ ; , 2 } 4 d q A D K z s s p #.@.H N -.&.#.#.#.#.#.>.&.#.z m a 5 } 2 # ,   @ @     # ",
"@ @ @     . .   , ,   . . . #     ,   ; ;   #   2 } 4 d q A D K z s s p #.$.H N -.&.#.#.#.#.#.>.&.#.z m a 5 } 2 , # # # # # ; + ",
". # , @ , ; ; , + @ , ,   . # # ,   # , , , , # 2 } 4 d q A D K z s s p E $.%.N -.&.#.#.#.#.#.&.&.#.z '.a 5 } 2 - - ~ - ; & & & ",
"@   .   # # # , , , @ $ @   @ , , , ; , @ @ ; , 2 } 4 d q A D K z s s p v ).H ,.-.&.#.#.#.#.#.&.&.#.z '.a 5 } 2 . . , @ @ - @ @ ",
", ; @ @ @ @ @ , , , , , ; ; ; . & # . # # # , # 2 } 4 d o A D K z s s p !.Z N $.*.&.#.#.#.#.#.&.&.#.z m a 5 } 2 & & . & # , . ; ",
"  # , , ; ; , , , # #   # , ;   , , , ; # + - , 2 } 4 d o A D K z s s p ..~.` W *.&.&.>.{.&.&.&.&.>.=.].9 5 } 2 , , , , , , # # ",
", , + , , , + + , , , , , ; , , ; # ; ; # , , ; 2 } 4 d o A ).K z h s ^./.&.Y Y *.&.&.&.&.&.&.&.(.&.=.i 9 5 } 2 , , , , + / + + ",
"; ; # # , ; , ; # # # ; # . . . & . & & # # & & 2 } 4 d o A D K z s _.x z ..{.&.#.#.#.#.#.#.#.>.&.#.z y a 5 } 1 # ; ; ; ; ; ; , ",
"; , ; # # # . & & & & # & & & & & & & * & & & & 2 } 4 d q A D E p m f m h p z :.:.z z z z z z =.=.z L j b 6 } 1 , , ; ; ; ; . # ",
". # # & & & & & & & * <.* & # , , > > , > / / , 2 } 4 d p A X !.x l 0 [.}.f |.y y y y y y y y '.'.y l 9 1.2.1 2 3.# & & & & & & ",
"# ; # & & & # & * * <.<.& , / / , , , , > , , ; 2 } 4 d p A B /.m 9 4.5.8 b 6.6.6.6.6.6.6.6.6.6.7.6.8.9.6 0.1 2 2 2 2 . & & & & ",
". a.* * & * & & a.# # ; ; , , / / > + @ / / / - 2 } 4 d p A C z t 4.6 2.6 5 3 3 3 3 3 3 3 3 3 3 3 3 5 6 2.b.} } } } } } & & & & ",
"> + > , ; , , , > > / / / / - ! ~ M ! - ! ! ~ M 2 } 4 d o K K p d 4 c.b.7 3 4 d.d.d.d.4 4 d.d.d.d.d.d.4 4 4 4 4 4 4 4 4 , , , , ",
"~ ^ M ~ ! ~ ! M M ~ ~ ~ ! - ~ ! $ + @ , , @ + + 2 } 4 e r E E r e 3 2.6 8 9 k e e e e k k e e e e e e e d d d d d d e 9 8 ~ ! ! ",
"@ @ @ @ @ + @ @ @ + + @ , , , ; , , ; . . . ; , 2 } 3 c L ....x 0 3 6 4.d e.o p p o o o o o o o o o o q p p p p U p n f 9 3 } 2 ",
"  , # # # . # # # . # . # # # & ; ; ; . & . # # 2 } 3 +._.=.=._.9 3 3 a _.f.A B B A A A A A A A A A A A A A A B B A u g 0 4 } 2 ",
"    . & & & . . & & & & # # . . # # & & & & & & 2 } 5 a |.L L g.b 5 4 +.s v D N T @.D D D D D D D D D D D D D D Z A u g 0 4 } 2 ",
"  #   . .               , . . # # # ; ; ; . . ; ; } 5 b d g.j +.9.6 3 a i w E A A K K K K K K K K K K K K K E !.f.z r f 9 3 } 2 ",
"@ @ @ , , @ @ + + @ , @ ] ) # . & .   , ; ; ; ; ; , ; 5.b 6.b 9.6 2.h.b j x z w w z z z z z z z z z z z z z p x m t d 9 8 @ + + ",
"- ! , + , # @ / @ @ @ @ $ @ . . . . # # . & & & & & & & 5 5 6 2.b.b.6 8 [.y s x h s s s s s s s s s s s h s m }.a 8 4 5 - $ + $ ",
"~ M + + , ; , @ @ @   . # # & & & . . . . . . & . # # # } } } | | } 6 8 [.y s x h s s s s s s s s s s h x s y [.8 6 } 1 ^ ~ @ @ ",
"~ ! , , , , @ @   . & . . . . .   ;   , , , # # #   # , , 1 1 2 1 } 6 b l x p z z i.p p p p p p p p p z w U x l j.7 1 3.~ $ @ + ",
"@ + , @ @   . . & . . . # ; # & & & . # . & & & & & . # # . # 2 2 } 5 9 m z #.K K E E E E #.#.v v #.E K A E w m a h.| 3.- + @ , ",
"@ @   # # # & . . # # . # # # . ; ; ,   , @ @ ; , + @ @ @ @ @ , 2 } 3 0 h v D N T $.).).@.@.@.@.@.@.$.T N D v s 0 3 } 2 , , , @ ",
". . & & . # #   # , , @ + @ @ + + ! - - ! - ! ! ! ! ! ! ! ! - + 2 } 3 0 h v D N T @.$.$.N J H H H I N T ).C u g 0 4 } 2 ,       ",
". # ,   #   @ + + - + + + @ + + , + , , . & & # # & & . . . & # 2 } 5 a m z E K K E K A X W ;.N N $.X K u p h t a 3 } # # # # & ",
"@ + $ ! + , , , # . & # # & & & & * & & & & & & . & & & & & & & 1 } 6 b l x p z z U w f.#.A ~.Z Z *.#.z e.j 0 6.5.. . # # # # , ",
"@ , # # # & & & . & & # # # # ; , ; , , + , # # , # ; ;   ; # # 1 } 6 4.c y s s s s L p /.#.&.A *.&./.h }.b d.h.+ + @ + - / , , ",
"& & # # # ; # & ; , , , , , , , > > , , + + , , > + + + , , ; ; 1 } 6 4.c y s s s s L p /.#.&.A A &./.h }.b d.h., ,   # # # # & ",
"# , , + , , , # & . # . . . # # . . # . # # . . # # # ,   # , , 1 } 6 b l h p z U p z /.#.K *.Y Y C #.z e.j c 6.5.# & & & # # , ",
"+ + > , # # . & . ; @ @ $ @ , @ ; ; ;   . ; ; @ @ @ , ; ; ; # # 2 } 5 a m z v K E #.E A B Z ` $.$.` -.{.f.p s t a 3 } # ; , , , ",
", # # . . ; ; @ @ @ ,         ; ; , , , , ; , @ , ; ; , @ @ $ - 2 } 3 0 h v D J T $.$.k.N I H %.%.H J N @.C u g 0 4 } 2 + + + # ",
"& # , @ @ + ,     , , @ @ ,         @ @ @ ;         , + ;   , , 2 } 4 e r A F P O G G G G G G G G G G O P F A r e 4 } 2 , , # & ",
", - + , # # , $ + ,       @ , , @ , , @ @ + @ @ ; , ,   . . @ + 2 } 4 e o B O l.l.P P O O m.m.m.m.m.O l.l.n.Z p d 4 } 2 # # ; ; "};
