/* XPM */
static char *_ffa9b5b0cb94d22f3fceb3547a52698TS5cjZxKVxvpjcKs[] = {
/* columns rows colors chars-per-pixel */
"64 64 34 1 ",
"  c #CE7E2D",
". c #D37E2E",
"X c #D47F30",
"o c #D3812F",
"O c #D68432",
"+ c #D98634",
"@ c #D78833",
"# c #D98738",
"$ c #DB8A39",
"% c #DA8B3B",
"& c #DC8A38",
"* c #DC8B39",
"= c #DB8C38",
"- c #DD8C38",
"; c #DC8D3A",
": c #DD8D3A",
"> c #DC8B3C",
", c #DB8D3D",
"< c #DE8D3C",
"1 c #DD903A",
"2 c #DF913F",
"3 c #E0913D",
"4 c #DE8F41",
"5 c #DE9342",
"6 c #DF9442",
"7 c #DF9344",
"8 c #DF9444",
"9 c #E08F42",
"0 c #E09342",
"q c #E09442",
"w c #E09444",
"e c #E39847",
"r c #E39749",
"t c #E39849",
/* pixels */
"$+$2<$###<<<<<5558555555<<52<<$##$52Oo90*O*O#1:#:22<::::#+#**<<<",
"*<<$+$*<2555,<45550q55555552<<<<$#<0#o+w<+O++==#:2::::=+O+#<0<+O",
"<*++$<<2255555222*:22::22207<255<#+<:OO<t3:+O##+#######**<05#O+<",
":$<22265555222<:<<<<<<<<<:505255<:O$<3+O0rw<***+O+**#::<0<##:<:$",
"2555525<222<<$$#O+++$$<5<<<2<<,25<##<52#O+>50400202<<<:##:*<<$#$",
"58855<$<<$#++++##OO#OO+$<::25w52<22$#$:<:**$$+$$*##$##**$$+$$<<<",
"55q2<*$$+OO+##*######+OO+#<*:q55<25<<$++$:<<252<$$*$$#+#$*<25655",
":::<<$++#+*:#OOOO.oO#:*OO+$<<225555<2<<$++++$$+++#:$<:<0q6526ww0",
"*<<$+O+***+Oo.oOOOOOO#$#OO#<<:::25555<<:22<<<5<<<<22052555550<5<",
":<$O+O+<:*###+##+###++++O+O$5<2<<22<55555<<26q52522222<,57w5<<22",
"<4$OOO.O+##*#+###+OOOO+###O#55<<<:<222<50555585565555525rw0021:<",
"<<<##+OOOOOOOOOOOOO###+#+OOO$554<<<****::2555w0qww77www05505::**",
"<<2<25$O+##O+OOOO*+++OOO+OOX+$$55<#$<**<*:21:<qq022522<:<<5w52::",
"::<2<45$+O++##O###+++OOO++O#$,<<44$$:<:<<::*::2255q00000<<5q22::",
"<<<<$475<$+OOOO++##$$++++#$4544><>*<<<<<00:**:::::<2222<::$:::*3",
"<*$<4447w<><$$$$##$$$$$$,44<<<<<23<<22<300<<<2:::::<<:::::<2<<:2",
"$$$$5<<<<<<<$$$$<<<<<<<<<<*<20<:<3:**:<:<<<032:<<<<$$$$<$,$###$$",
"OOOO#$,<$$***<*$:<<225<5<*<<<<<<<::::<::<<<2<:<<$$$++++++##+##OO",
"###+OO++O+$#$$$$$$+$$:$$$$$+++##$<<<<<<<<<$$$$$#+#$#+#++++#+OOO#",
"*#+++:$+++OOO++##++++++OOO+$$+#++##++++OO++###+###OOoo..OOO+*:::",
"::*##++#++#+#########OO#########+####**OOOOOOO**+OOOo.oOOOO##*::",
"###O##:<<*:*::::$$*<*$$*222::::#OOOO#$**OO..oO**#OOOO.OOOO#++***",
"+OO:2<<*<<<<<<::<2<<<<<<:::<2<:#OOO+#*+OOoOOO+O*++OO.OOO*<$++###",
"++O#<2*+:2522ewq2252::<<<2::#####+++++OO++#$+##+O++OOOOO#***###+",
"**OO+:<*$:<:<2<<22<$*<<*###+####++O+$,$<<<<*$:*$::<<*$$$#+O+##+#",
"*++##++###$$$#:*$$::$##+++#+++#:<<$$<2<<:<2<2<<2qq32:<<<<<$$$+O+",
"0:$:#+++#+#OO#+OO++#+##+$::::<<:<2<<25ww555585555w555<<55222<<<<",
"2<<2:<2<$+$<:*#$::$$:*<:<<22q2255568555565<2<<<<*:::<<52<<5525w2",
"55<<2wwq<<2q5<<25225qww55556w552<2<<<::*:$$:*$$**$,$*:$$$::<<5q2",
"<<<<<56655556856552<25552522<*<$$$*<<$:<2:$:#+#$:::$$$<<<:$##+*<",
"+$::<<<5552<5q52252<<<*::$$$$$<22:#<<+OO+O+#$$+++++OoOOO#:$<<$$#",
"<<<$$++$::$+++#$$:$**$#$:<:######++$**<54400wwww0ww040<<:#####*2",
"+#:<:**:2<::$+##:$#::::#::<<*::*<52<<:<:***::*+O+***:<:<00w0*OOO",
"<$+$###:::<5<$<:::*:<<*::*::***##*#+##OO+#+**+OO+#OO#OO+++:<<0<<",
":*<<<<<:::::***+O#+###:####:##=::::::::::::*::::::==#+OOOO+O#:+*",
"$#::**:::##$#:*$:::*#20:::11:::::::***:::*::<222:<23:*22::::::##",
"::2:::22:::::*::*#**#::*##:**$#::*+O+#***O*:**::**13:::1::::2322",
"**##:*:*###*#+++O+OO##OOOOOOOOOOO+O+*#$#*:::+#:*#******##******:",
"*:*###+OOOO#OOOOOOOoOOOOooooo#*#OOOOOOOOOOOOOOO####$*#::::****+#",
"+##OOOOOOOo oO#::11:133:::O@OOOOOo.ooOOOO#*OOOoooooOOOOO+#OOOOOO",
"#*#OOO#Ooo  O:33::::1::*:::13::::#+OOOOOoooO#OOO+#OOOOOOO*O+OOOO",
"+@ooOoOO@##**::3312<3330030qq00q3::1113:++oo oOOO#OO+#OOOooOOOOO",
"121:*:::1133330qweq0qqweewwewwetwwwq0q313:::#OOooOOO#OO+#=##::::",
"wtewqwqeewwwq0wq52<::<2222222::<25qwwwwwq0333331::::333333qwewqq",
"<<<<<2<<<22<:::*::*+++*:$#:<<<<:::::<22qqq05qwwqq05qqqww2222222<",
"$:###+###+#+###O***+O+###OO+++#*:*<:*:::::::<<:::::<:*::::$::+#$",
"$$+OOO++OOOO##++##OOOOOO#OOO####+O####**#$##*$$*#+###O+##+OO*++#",
"$#$++$$$$$$$:++###***++***OOOO#++O#OOO##OOOO###+++++++$$:$##:#$:",
"<<<::<<22<:<74#+O+$:*****:**OO:*+#:*#+++++$$$$<<<<:<22<*:222<<22",
"0q:2:#<3<<<<5<++++##+OOOOOOOOOOoO#**+O+:4<<<<<<::::2qq2<<0w00525",
"we22:*:<<<$+##OOO++++++O+###*#+OOOOO#+++<5<<*2<:15w55qwwwrrttw<<",
"wq::::<<$+O+++++$*$:::###$#:::*:*#+OOO++$5<:*<*22ww<:20wwwwww5<2",
"<2:<<$++O+++#*#OOO+#+OOOOO+##+####$+#####$,<<*::2655002<2<2202<:",
"<<$###O++##+###+**:$:<<*:2<<<<<::$$####$#+++$<:**:::2225<221:::<",
"++OO+##$#::<2<<22q00q0qqqqqqqq02qq<<<2<$#++O+#+++$$$$*::::2<:$$$",
"+#:$#$<220222<22:2::+OO##OO+++O#*::2300002<$::#+O++O+##+##+####O",
"<25q2:::#+O##OOOOoOOOOOO+OOOOOOOOoOOO##:3qq002<##$$OO#++#++####:",
"<:###OOO+OO####*:*::2:##:#**$*###+OOOOOOO##::330q0522<:<22<203::",
"OO###*#O*:::::::11::22::1222::**::#:###OOOOOOOO#:222<:::::$####O",
"#::2:::#O+#+++##++#+##++###:$#::::231::*#+OOOOOOOOOOOOOOO#OOO##:",
"221:##+O+*<<5<:<***$+**<<<:***##+#:::<23:::**:::#######+O#:#*:::",
":##++**<<<:$$$$**::::*:<:**:<<50:*#+O##:2223::::*::#::**::::222#",
"O#:<<2:$$::<<:$$$$<<<*$$$$:2*$::::<0<#+###:::2<2:::::::132::::#O",
":02:##:52:$$$<::<::<<2<<*::$++<2:##$50<*OO#O:::22<2222<<21:###**"
};
