/* XPM */
static char * player_xpm[] = {
"64 64 238 2",
"  	c #DB8A39",
". 	c #D98634",
"+ 	c #DF913F",
"@ 	c #DE8D3C",
"# 	c #D98738",
"$ 	c #DE9342",
"% 	c #DF9444",
"& 	c #D68432",
"* 	c #D3812F",
"= 	c #E08F42",
"- 	c #E09342",
"; 	c #DC8B39",
"> 	c #DD903A",
", 	c #DD8D3A",
"' 	c #DB8D3D",
") 	c #DE8F41",
"! 	c #E09442",
"~ 	c #E09444",
"{ 	c #DB8C38",
"] 	c #DF9344",
"^ 	c #E39849",
"/ 	c #E0913D",
"( 	c #DF9442",
"_ 	c #E39749",
": 	c #DC8B3C",
"< 	c #D37E2E",
"[ 	c #D47F30",
"} 	c #E5E3CC",
"| 	c #E6E4D1",
"1 	c #DCDAC5",
"2 	c #E1DEC5",
"3 	c #EEECD9",
"4 	c #F6F4E2",
"5 	c #E2DECA",
"6 	c #F1EEDB",
"7 	c #EDEAD3",
"8 	c #EAE8CE",
"9 	c #DEDBC2",
"0 	c #F4F1DE",
"a 	c #FCFBEA",
"b 	c #F9F6E3",
"c 	c #E9E6D1",
"d 	c #E4E1C7",
"e 	c #E9E6CF",
"f 	c #CECBB3",
"g 	c #BAB5A5",
"h 	c #D1CEB3",
"i 	c #D6D3B9",
"j 	c #BAB69B",
"k 	c #FFFEED",
"l 	c #B8AB8B",
"m 	c #A6A19A",
"n 	c #A39596",
"o 	c #BAB4B2",
"p 	c #B4AAAA",
"q 	c #A49C9A",
"r 	c #CABBB2",
"s 	c #FFFFF1",
"t 	c #FBF9E5",
"u 	c #F1EED7",
"v 	c #A49C8E",
"w 	c #9B8898",
"x 	c #91799B",
"y 	c #957AA5",
"z 	c #997DA7",
"A 	c #9D81AE",
"B 	c #CAC5CA",
"C 	c #D9D6BB",
"D 	c #E39847",
"E 	c #C6BAA6",
"F 	c #9C8A8E",
"G 	c #8B7395",
"H 	c #8C729D",
"I 	c #A285B3",
"J 	c #A687B8",
"K 	c #A589B5",
"L 	c #A18CAD",
"M 	c #F1EDE9",
"N 	c #DCDABD",
"O 	c #A493AB",
"P 	c #BCAEC2",
"Q 	c #AA8CBC",
"R 	c #B394C5",
"S 	c #D6CED7",
"T 	c #886F97",
"U 	c #D4D3D3",
"V 	c #AD97B9",
"W 	c #BA98C7",
"X 	c #D9D7D9",
"Y 	c #FCFBF0",
"Z 	c #D4D1B4",
"` 	c #9A86A5",
" .	c #C5BAC7",
"..	c #B198BE",
"+.	c #C29FCE",
"@.	c #E3E4E5",
"#.	c #B7A9BB",
"$.	c #9F81B0",
"%.	c #AB8DB6",
"&.	c #E1DBD4",
"*.	c #9276A3",
"=.	c #E7B8C6",
"-.	c #F5C9D6",
";.	c #CDA8CE",
">.	c #D1C7CA",
",.	c #9A7DAB",
"'.	c #D59CB4",
").	c #F2B3BD",
"!.	c #D29CB1",
"~.	c #F5C0CB",
"{.	c #EABDD1",
"].	c #AF8FC1",
"^.	c #E5AABA",
"/.	c #CC949E",
"(.	c #7F4E5B",
"_.	c #856C95",
":.	c #80505C",
"<.	c #F5BAC6",
"[.	c #EEEAE3",
"}.	c #CDCAAD",
"|.	c #7D6689",
"1.	c #8F73A0",
"2.	c #967AA8",
"3.	c #C5959E",
"4.	c #EEB7BF",
"5.	c #A789B8",
"6.	c #765E85",
"7.	c #846D8D",
"8.	c #A883AB",
"9.	c #B889AA",
"0.	c #947B7D",
"a.	c #CBB47C",
"b.	c #D9D287",
"c.	c #C4BC99",
"d.	c #A18E9C",
"e.	c #A77898",
"f.	c #B97997",
"g.	c #D5C589",
"h.	c #CAC6AC",
"i.	c #C895A4",
"j.	c #C36D99",
"k.	c #ED94B6",
"l.	c #F3ABB6",
"m.	c #F0D1A7",
"n.	c #F4C796",
"o.	c #E897A6",
"p.	c #CE9887",
"q.	c #B49270",
"r.	c #D567A8",
"s.	c #EF7AC4",
"t.	c #F883D3",
"u.	c #F590CE",
"v.	c #F3EC8F",
"w.	c #EAC685",
"x.	c #F57DC6",
"y.	c #D66BA9",
"z.	c #CC8CA1",
"A.	c #D1CEAE",
"B.	c #DBA7BB",
"C.	c #EC77BB",
"D.	c #F48FBE",
"E.	c #E49F98",
"F.	c #DB6DAD",
"G.	c #FB82CC",
"H.	c #F079BE",
"I.	c #D369A6",
"J.	c #C3BDA1",
"K.	c #C5C1A5",
"L.	c #CB649E",
"M.	c #E272B4",
"N.	c #F5DF7F",
"O.	c #CF78A3",
"P.	c #CE66A1",
"Q.	c #DAB6B9",
"R.	c #BD5C92",
"S.	c #C5619A",
"T.	c #D167A3",
"U.	c #EFD278",
"V.	c #CB7493",
"W.	c #C96C9C",
"X.	c #E5D5C6",
"Y.	c #CDC9A5",
"Z.	c #E1C8C4",
"`.	c #B45C8B",
" +	c #BB5A8E",
".+	c #C25E96",
"++	c #C57A83",
"@+	c #DFC46C",
"#+	c #C98985",
"$+	c #C35F98",
"%+	c #DDDEE0",
"&+	c #B7698F",
"*+	c #AC4F80",
"=+	c #B25485",
"-+	c #BA7875",
";+	c #CCAA65",
">+	c #CCB060",
",+	c #BA568C",
"'+	c #B5568A",
")+	c #C9C5A3",
"!+	c #C4C1BE",
"~+	c #C5C3C2",
"{+	c #BDB7BC",
"]+	c #D78833",
"^+	c #C7A999",
"/+	c #B5746B",
"(+	c #BB975C",
"_+	c #C6996C",
":+	c #C58975",
"<+	c #C2BEBB",
"[+	c #C6C4B7",
"}+	c #D5C5A8",
"|+	c #BB7080",
"1+	c #D3D0AF",
"2+	c #B6B3B1",
"3+	c #D1CAB5",
"4+	c #C97699",
"5+	c #BF8D98",
"6+	c #BDB9B5",
"7+	c #ABA7A4",
"8+	c #B79796",
"9+	c #C7ABA2",
"0+	c #C6869E",
"a+	c #C26196",
"b+	c #C4A49C",
"c+	c #BA8993",
"d+	c #BC6293",
"e+	c #DE6FB0",
"f+	c #CD6AA2",
"g+	c #9E9997",
"h+	c #D673AA",
"i+	c #BE6996",
"j+	c #AF5A88",
"k+	c #B75A90",
"l+	c #DE70B1",
"m+	c #AC5182",
"n+	c #A74B7A",
"o+	c #AA4E7D",
"  .   + @   # # # @ @ @ @ @ $ $ $ % $ $ $ $ $ $ @ @ $ + @ @   # #   $ + & * = - ; & ; & # > , # , + + @ , , , , # . # ; ; @ @ @ ",
"; @ @   .   ; @ + $ $ $ ' @ ) $ $ $ - ! $ $ $ $ $ $ $ + @ @ @ @   # @ - # * . ~ @ . & . . { { # , + , , , , { . & . # @ - @ . & ",
"@ ; . .   @ @ + + $ $ $ $ $ + + + ; , + + , , + + + - ] @ + $ $ @ # . @ , & & @ ^ / , . & # # . # # # # # # # ; ; @ - $ # & . @ ",
",   @ + + + ( $ $ $ $ + + + @ , @ @ @ @ @ @ @ @ @ , $ - $ + $ $ @ , &   @ / . & - _ ~ @ ; ; ; . & . ; ; # , , @ - @ # # , @ ,   ",
"+ $ $ $ $ + $ @ + + + @ @     # & . . .     @ $ @ @ @ + @ @ ' + $ @ # # @ $ + # & . : $ - ) - - + - + @ @ @ , # # , ; @ @   #   ",
"$ % % $ $ @   @ @   # . . . . # # & & # & & .   @ , , + $ ~ $ + @ + +   #   , @ , ; ;     .     ; # #   # # ; ;     .     @ @ @ ",
"$ $ ! + @ ;     . & & . # # ; # # # # # # . & & . # @ ; , ! $ $ @ + $ @ @   . .   , @ @ + $ + @     ;     # . #   ; @ + $ ( $ $ ",
", , , @ @   . . # . ; , # & & & & < * & # , ; & & .   @ @ + + $ $ $ $ @ + @ @   . . . .     . . . # ,   @ , @ - ! ( $ + ( ~ ~ - ",
"; @ @   . & . ; ; ; . & * < * & & & & & & #   # & & # @ @ , , , + $ $ $ $ @ @ , + + @ @ @ $ @ @ @ @ + + - $ + $ $ $ $ $ - @ $ @ ",
", @   & . & . @ , ; # # # . # # . # # # . . . . & . &   $ @ + @ @ + + @ $ $ $ $ $ @ @ + ( ! $ + $ + + + + + @ ' $ ] ~ $ @ @ + + ",
"@ )   & & & < & . # # ; # . # # # . & & & & . # # # & # $ $ @ @ @ , @ + + + @ $ - $ $ $ $ % $ $ ( $ $ $ $ $ + $ _ ~ - - + > , @ ",
"@ @ @ # # . & & & & & & & & & & & & & # # # . # . & & &   $ $ ) @ @ @ ; ; ; ; , , + $ $ $ ~ - ! ~ ~ ] ] ~ ~ ~ - $ $ - $ , , ; ; ",
"@ @ + @ + $   & . # # & . & & & & ; . . . & & & . & & [ .     $ $ @ #   @ ; ; @ ; , + > , @ ! ! - + + $ + + @ , @ @ $ ~ $ + , , ",
", , @ + @ ) $   . & . . # # & # # # . . . & & & . . & #   ' @ @ ) )     , @ , @ @ , , ; , , + + $ $ ! - - - - - @ @ $ ! + + , , ",
"@ @ @ @   ) ] $ @   . & & & & . . # #     . . . . #   ) $ ) ) : @ : ; @ @ @ @ @ - - , ; ; , , , , , @ + + + + @ , ,   , , , ; / ",
"@ ;   @ ) ) ) ] ~ @ : @         # #             ' ) ) @ @ @ @ @ + / @ @ + + @ / - - @ @ @ + , , , , , @ @ , , , , , @ + @ @ , + ",
"        $ @ @ @ @ @ @ @         @ @ @ @ @ @ @ @ @ @ ; @ } | } 1 @ / , } } } 2 , @ @ @ - / + , @ @ @ @         @   '   # # #     ",
"& & & & #   ' @     ; ; ; @ ;   , @ @ + + $ @ $ @ ; @ | 3 4 3 5 1 1 | 3 6 7 8 5 9 @ @ + @ , @ @       . . . . . . # # . # # & & ",
"# # # . & & . . & .   #             .     ,       1 | 0 a a 4 | 1 5 6 b b 4 0 c d 9           # . #   # . # . . . . # . & & & # ",
"; # . . . ,   . . . & & & . . # # . . . . . . & 9 c 0 a a 4 4 3 1 5 0 a a a b 6 e 2 9 # # # . # # # & & * * < < & & & . ; , , , ",
", , ; # # . . # . . # . # # # # # # # # # & & # } 6 a 6 f g h 3 i j f 4 k k a 0 c d 9 9 & & ; ; . & & & * < * & & & & # # ; , , ",
"# # # & # # , @ @ ; , ; , , , ,     ; @ ;     2 3 b | j l m n o p n q r a s k t u } 2 9 * & ; ; # & & & & < & & & & # . . ; ; ; ",
". & & , + @ @ ; @ @ @ @ @ @ , , @ + @ @ @ @ 9 | 4 | j v w x y z A y y x B s k a 0 e d 9 C . & ; . . & & < & & & ; @   . . # # # ",
". . & # @ + ; . , + $ + + D ~ ! + + $ + , , 9 3 4 E F G H z I J K A z y L M s k b 7 d 2 N C # . & . . & & & & & # ; ; ; # # # . ",
"; ; & & . , @ ;   , @ , @ + @ @ + + @   ; i } 4 } F H O P L Q R Q P B L z S s k t u 2 } 9 i ;   , , @ @ ;       # . & . # # . # ",
"; . . # # . . # # #       # , ;     , ,   C c 4 o T y B U V R W R U X B z P Y s a 0 2 2 2 C i + ! ! / + , @ @ @ @ @       . & . ",
"- ,   , # . . . # . # & & # . & & . . # Z 9 3 6 ` H ` X  ...W +.R S @.#.$.%.M s a b e 9 2 C i $ $ ~ $ $ $ @ @ $ $ + + + @ @ @ @ ",
"+ @ @ + , @ + @   .   @ , ; #   , ,     i 5 0 &.H *.z L %.=.-.-.;.R ..J J I X s k t 7 9 2 N i @ ; , , , @ @ $ + @ @ $ $ + $ ~ + ",
"$ $ @ @ + ~ ~ ! @ @ + ! $ @ @ + $ + + h i } 4 >.T *.,.I '.).!.~.{.W R ].J A  .s k t u 9 2 9 i Z ;   '   ; ,       , , @ @ $ ! + ",
"@ @ @ @ @ $ ( ( $ $ $ $ ( % $ ( $ $ + h i } 4  .T *.z I ^./.(./.~.W R Q J z V a k t 6 9 9 9 C h , , ,       @ @ @ ,   # # . ; @ ",
".   , , @ @ @ $ $ $ + @ $ ! $ + + $ + h i e 4 #._.H y I ^./.:./.<.W Q J A y ` [.k t u 2 C 9 C h . . . & * & & & # ,   @ @     # ",
"@ @ @     . .   , ,   . . . #     , }.h i c 4 p |.T 1.2.'.=.3.4.^.5.I ,.y H H &.a b 7 9 C C i h h ~ ~ - ) - @ @ , # # # # # ; + ",
". # , @ , ; ; , + @ , ,   . # # ,   }.h C c 4 O 6.7.x *.8.).<.^.9.,.z y H _.7.&.a 0 8 N i i i }.}.; ; ; , @ , @ - - ~ - ; & & & ",
"@   .   # # # , , , @ $ @   @ , , , }.f C c 0 w 0.a.b.c.d.e.f.e.w l g.g.l 0.|.&.b 6 } C Z i h }.}.# & & # & J ,.. . , @ @ - @ @ ",
", ; @ @ @ @ @ , , J R , ; ; ; . & # h.}.C c 0 i.j.k.l.m.b.v G F g.n.l.l.o.p.q.| 0 7 2 Z h h h h.p K { { # A *.H & Q . & # , . ; ",
"  # , , ; ; , , , *.,.  # , ;   , , h.}.i e 0 '.r.s.t.u.m.v.b.w.o.x.t.t.s.y.z.u u } N A.h h }.g z ,.z / , *.H + I $.z , , , # # ",
", , + , , , ..R , , H , , ; I Q ; # h.}.i } 0 B.r.C.x.x.D.v.v.E.F.s.G.G.H.I.'.u 8 2 i A.Z h h.J.d.*.,.I z H z A 2.H , , + / + + ",
"; ; # # , ; ,.J K # H y I $.,.y & . K.}.Z 2 6 B.L.F.M.M.M.n.N.O.r.M.H.H.M.P.Q.7 d C A.}.Z f K.c.g 2.I I ,.z z *.H ; ; ; ; ; ; , ",
"; , ; # # # H *.2.A y z Q Q 2.& & & K.}.A.9 7 Q.R.S.T.r.I.w.U.V.L.I.F.y.T.W.X.} N Z Y.h h }.K.j # 2.,.,.z ,.*.*., , K ; ; ; . # ",
". # # & & & & & H *.$.z A $.# , , > h.}.A.C e Z.`. +R..+++@+@+#+.+S.L.$+.+z.d N Z Y.Y.i h }.J.j * O y y y 2.2.,.,.z y & & & & & ",
"# ; # & & I Q K I y *.*.*.y B %+%+@.U h.A.A.9 5 &+*+=+-+;+>+;+;+++ + +,+'+Q.N Z Y.)+h i h Y.E !+~+{+y *.*.y *.*.z ; & . & & & & ",
". ]+* * & *.y y y y *.1.H L U @.@.@.X h.}.A.i d ^+/+(+(+(+++V.#+_+:+-+/+#+i Z Y.)+}.i Z Y.)+E <+!+~+V *.1.H H y A * * & & & & & ",
"> + > , ; , Q I 2.H H H y {+>.U U U U [+h.}.A.C }+-+-+|+`.S.P.P.j.:+_+_+}+1+Y.)+)+C Z Y.Y.K.o {+<+<+<+O # H H . ,.,.# # , , , , ",
"~ ^ D ~ ! A I z D ~ H ~ ! !+<+<+~+B ~+2+E h.}.h 3+4+R.R.R.L.I.P.$+L.S.i.A.Y.c.5+r i J.E Y.g 2+{+6+6+<+, / / / / / / ! ~ D ~ ! ! ",
"@ @ @ @ @ + @ @ @ + + @ , , , o 6+o 2+7+8+9+5+9+0+i.a+.+R.I.F.I.S.P.0+E 9+b+f.0+h ^+c+E j q p 2+o 6+$ ! ! ! ~ ~ + + + + + + + @ ",
"  , # # # . # # # . # . # # # & 7+7+m q & &+d+a+.+j.S.$+S.y.e+y.P.O.i.O.f+L.j.9+5+&+5+8+c+g+q 7+p , , @ , ; , , , ,   , , . #   ",
"    . & & & . . & & & & # # . . # # e.`.'+ +.+S.S.S.L.a+P.F.M.I.I.h+y.I.I.P.4+j.R.&+i+d+j+  g+m # . # # # & . # # . & & ; . . # ",
"  #   . .               , . . # d+d+k+'+R.S.L.L.L.L.L.S.y.M.M.I.F.F.F.F.y.I.P.S.R.R.R.R. +# # . . . . . . .     ,   # # , #   , ",
"@ @ @ , , @ @ + + @ , @ ] ) L.L.S.$+ +R.L.P.P.P.P.P.S.P.F.M.M.I.F.l+l+F.F.y.y.P.S.R..+L.S.d+@ @ @ @ , @ + + @ ; , + + + @ @ + + ",
"- ! , + , # @ / @ @ @ @ $ R.R.R. +'+R.L.I.I.I.P.P.L.S.I.M.M.F.I.e+M.l+l+F.F.F.I.L..+S.P.I.f+I., , , , + ! ! + @ @ - ~ - - $ + $ ",
"~ D + + , ; , @ @ @   . # # & =+=+R.P.I.y.y.I.P.L.S.L.F.M.M.I.y.M.M.M.M.M.l+e+y.P.S.S.P.I.y.F.h+> $ ~ $ $ ! ~ ~ ~ _ _ ^ ^ ~ @ @ ",
"~ ! , , , , @ @   . & . . . . d+S.P.I.y.y.I.P.L.S.S.I.M.M.l+P.F.M.M.M.M.M.M.M.F.T.S..+L.L.P.I.F.h+~ ~ @ , + - ~ ~ ~ ~ ~ ~ $ @ + ",
"@ + , @ @   . . & . . . # a+.+S.P.I.y.y.y.I.P.L..+P.F.M.M.y.P.F.l+M.M.M.M.M.M.F.I.S.R.'+=+=+'+.+P.y.$ $ - - + @ + @ + + - + @ , ",
"@ @   # # # & . . # # S.a+.+S.P.I.y.y.y.I.P.L..+L.F.M.M.e+P.F.F.F.l+M.M.M.M.M.F.I.S.'+m+n+n+n+o+'+R.S., + + + $ @ + + > , , , @ ",
". . & & . # #   # , S.S.S.S.L.T.I.I.I.I.P.L.a+S.I.l+M.M.I.I.F.F.F.F.F.F.e+M.M.e+y.L.R.m+o+n+n+=+ +        ; , , , , + @ ,       ",
". # ,   #   @ + + - f+L.S.L.P.I.I.I.T.P.L.a+S.I.F.M.M.M.I.F.l+F.F.F.F.F.F.F.e+F.y.T.S.'+m+o+o+=+R.. . & . # # . # # . # # # # & ",
"@ + $ ! + , , , # . & S.S.L.T.T.T.T.P.L..+S.T.y.l+M.M.l+I.l+l+F.F.y.I.I.y.F.F.F.F.I.L.R.m+m+o+=+ +S.L.& & # . . # . . # # # # , ",
"@ , # # # & & & . & & S.L.P.P.P.P.P.L.R..+P.I.F.M.M.M.F.y.M.F.y.I.I.T.T.I.I.y.F.y.I.L.S. +=+=+'+R..+S.L.f+@ , @ + + @ + - / , , ",
"& & # # # ; # & ; , , , f+P.P.L.L.L..+R.S.P.I.F.e+M.M.F.I.F.F.I.T.T.P.T.T.I.I.y.I.I.L.S.R.'+'+,+R..+L.L.L.f+, , , ,   # # # # & ",
"# , , + , , , # & . # . . . # L.L.S. + +.+L.I.y.F.F.F.I.L.y.I.P.L.P.T.T.T.I.I.I.I.T.L.S.R.'+'+ +R.$+L.P.P.f+& & & # & & & # # , ",
"+ + > , # # . & . ; @ @ $ @ , @ ; a+'+ +.+S.P.I.I.I.I.L..+L.L.L.P.P.P.T.T.I.I.I.T.P.L..+R. +,+ +.+S.L.f+# # # . & # , # ; , , , ",
", # # . . ; ; @ @ @ ,         ; ; ,  + +.+.+S.L.P.T.P.a+a+L.$ - , ; # . & I.I.I.T.L.S..+R. + +d+; , , # , , ; ; , , , , + + + # ",
"& # , @ @ + ,     , , @ @ ,         @ @ a+a+S.L.P.f+, + ;   , , , , @ - @ # . # I.P.S..+R.+ @ + , , , , , , , > / + , , , , # & ",
", - + , # # , $ + ,       @ , , @ , , @ @ + @ @ ; , ,   . . @ + , # #   $ - @ ; & & # & , , , + + @ + + + + @ @ + > , # # # ; ; "};
