/* XPM */
static char *_7c1c49d437f460ce8fd586b4c1b3beeEJKroa7G5dpLOgmg[] = {
/* columns rows colors chars-per-pixel */
"64 64 130 2 ",
"   c #1D1712",
".  c #1E1A16",
"X  c #1F1B19",
"o  c #221B15",
"O  c #291E16",
"+  c #231E1A",
"@  c #291F18",
"#  c #2A2017",
"$  c #26211D",
"%  c #2A231E",
"&  c #312317",
"*  c #31261D",
"=  c #3C2D1F",
"-  c #262321",
";  c #2B2622",
":  c #2E2925",
">  c #2D2A28",
",  c #302720",
"<  c #332B25",
"1  c #3A2F26",
"2  c #332D29",
"3  c #382F29",
"4  c #3E3024",
"5  c #37312D",
"6  c #3A322C",
"7  c #373330",
"8  c #3C3631",
"9  c #3E3835",
"0  c #3E3B39",
"q  c #41301F",
"w  c #433325",
"e  c #4A3624",
"r  c #43362B",
"t  c #45392E",
"y  c #4A3A2D",
"u  c #543F2D",
"i  c #403730",
"p  c #443B34",
"a  c #4A3E34",
"s  c #443E39",
"d  c #483F38",
"f  c #523F30",
"g  c #5C432F",
"h  c #4C4036",
"j  c #47403B",
"k  c #4C433C",
"l  c #544334",
"z  c #594534",
"x  c #52463C",
"c  c #584738",
"v  c #55493F",
"b  c #5B4A3C",
"n  c #604731",
"m  c #624B37",
"M  c #614E3E",
"N  c #65503F",
"B  c #4D4641",
"V  c #4F4843",
"C  c #4F4B49",
"Z  c #504740",
"A  c #534B44",
"S  c #5A4E44",
"D  c #554E49",
"F  c #584F48",
"G  c #5C5046",
"H  c #57504B",
"J  c #5B534C",
"K  c #575350",
"L  c #5D5651",
"P  c #5F5954",
"I  c #5F5B58",
"U  c #614F40",
"Y  c #635243",
"T  c #695645",
"R  c #62564C",
"E  c #68574A",
"W  c #65594E",
"Q  c #6A5A4C",
"!  c #735F4D",
"~  c #605750",
"^  c #625B54",
"/  c #6A5E54",
"(  c #645E59",
")  c #685F58",
"_  c #6D6055",
"`  c #66615C",
"'  c #6A635D",
"]  c #726254",
"[  c #786555",
"{  c #72665B",
"}  c #76685D",
"|  c #786A5F",
" . c #676361",
".. c #6B6661",
"X. c #6E6762",
"o. c #6F6863",
"O. c #6E6965",
"+. c #6D6866",
"@. c #6E6B69",
"#. c #706760",
"$. c #726962",
"%. c #706A65",
"&. c #726A64",
"*. c #726B66",
"=. c #7A6E64",
"-. c #726E6B",
";. c #756F6B",
":. c #766F6A",
">. c #7F7166",
",. c #77706B",
"<. c #73706E",
"1. c #75706D",
"2. c #77726F",
"3. c #7C7168",
"4. c #78716C",
"5. c #7A736D",
"6. c #7A736E",
"7. c #797471",
"8. c #7C7671",
"9. c #7C7672",
"0. c #7B7775",
"q. c #7D7976",
"w. c #7F7C7A",
"e. c #817367",
"r. c #817C79",
"t. c #847E7B",
"y. c #88827F",
"u. c #888582",
"i. c #8C8681",
"p. c #8E8883",
/* pixels */
"5 < ; + + o o o X - - ; > - ; : - $ - ; ; ; - - ; ; : : < : : : ; : ; $ o . o + $ : 3 r 4 1 = q 4 w 3 6 5 5 6 5 8 8 7 5 5 5 5 7 ",
"-.L p ; - ; - + - > 8 9 9 0 9 8 9 9 8 5 5 8 8 5 3 6 6 3 3 5 5 6 3 < : ; ; : $ ; p P ) R F Y Y G J L W / ` P ..1.;.+.` ` ) ^ ( ` ",
"y.t.;.B - - ; ; 0 ( <.1.1.7.@...@.+.F A V A F Z k k k j j F J A a a r < % % - s ' %.%.) ) ) ^ ^ ) ^ [ } X.;.r.t.t.4.{ ;.1.%.-.1.",
"' 4.y.-.5 - - 8 ` r.u.y.r.4.7.1.+.` L H D F J A J F Z k k A J S c v J k < % 2 P 1.;.%.(  .( ) ^ ) / W W $.3.e.{ } _ ' ' X._ ' ' ",
"..X.7.1.s ; : B +.0.q.8.r.7.%.+...L B D V F A j A k A k j j L S v F X.^ s ; 8 L -.7...F P L H H A W T G ^ W / ' Q Q X.' ) ' _ o.",
") ) %.' s > 2 C P +.+...%.P J L L A B V B V Z k k p p p a j j Z k A 8.%.B 2 0 ( +.X.^ P P J P J J H R ^ ^ J P ' ! / _ ..` ) ) ) ",
"` L ' ..j : 2 K ..1...L ..( ) J H L A j j B k j j a p a p a j j p Z 4.;.j 2 9 ) +.%.^ / _ ) X.) ^ P ^ J L J J ) _ _ ' ) ..' ' _ ",
"o.%.,.X.s - 2 L +.1.) L H ^ +.` H A D B B k j j j j p j k j p j j p ^ o.B > 9 ( 1.7.+._ ^ `  .) ^ ^ ' L J F J P ^ ^ R / ) ) X.X.",
"%.;.4.' s ; 2 L @.+.( L A J ' P L J F F A k j V A j 6 i B B j k Z k F ^ k 2 9 P 1.1.` ^ ^ ^ ) J ( L ( ( ^ J ^ ` ) ` ^ ^ ^ X.` ' ",
"+.%.%.' s ; > P +.` H A A F J J L B A F F Z B j Z j p j Z j B k k A Z ^ k 2 9 P 0.-...X.` ^ ` J P I ` ` ) P ( P ` ` ( ..' ^ ( ` ",
"%.%.4.' 9 ; : V ( ` B k Z k A F Z j k V A B k j B V A A k B j F F A J ) j : s  .-.1.` ^ ( ) ..^ J ) ..` ` +.( ^ ....' ` ..'  .' ",
"%.8.7.) 6 - : s A P F A B k B B k B k j j j j k j B A V j k Z F J H J J j : 9  .-.1.....( ` ' ^ L H ^ ' +.+.) _ ' o.X...` ` ` ) ",
") X.%.^ 9 ; : V Z A Z k A k B B V A s p 9 p B B j A A Z A A H A A J J J B 2 9 ( +.-.1.+.P ^ ^ H ^ ( o.' ' ` ^ _ ^ X.....) ` ` ( ",
"_ ^ ' ^ 9 ; : j B j j p p j Z A A A j p k j A V Z A ^ L H A Z B A F H F j : 9 ( 1.7.+...( ^ / H ^ ) X.+.+...` ....X.....` ` ` _ ",
"H ^ ^ J 8 ; : p j j s k s B F H Z Z k j Z F J F J A J J F F F k Z J ^ ^ p : 9 ( -.;.X.' ^ ^ ^ / R ^ ' ..^ ) ` ` ` ..X.` L H F A ",
"P ^ ^ J 8 ; : j j B k j s A F F A j j A Z A J L L J J H J J A k A Z J F 9 2 8 ( ' +.%.-.{ ` L ^ ^ ..( ^ ) ^ ` L F ^ ' ^ L L J H ",
"J ^ ^ J 5 % : p j k j j k k A A A B H A A A J L R J ) ) L J H F Z j Z H p 2 9 P +.-.%.%./ ' ` ^ P ( P ^ ) L P ^ ' ` ^ ^ L L J J ",
"k J ^ F 6 : : 6 a k p k k A A B A V F A Z L J J H J ) ) L J J J A Z F A p 2 8 P  .-.-.-._ ' ) ) P ( ` ) P ` ` ' X...` ( J J J F ",
"J H ^ J 6 % : p l y p a S H H H L J A J ) ^ A ^ X.L P ' ^ F F Z A H J A p 2 5 L ....( ..` X...^ P  ...) P ..) ) ( ` ` ) L L F F ",
"F J F Z 6 : , 6 p j a t S Z G J P ( P ) ' ..' %.X.L ` ' ) J Z A Z Z J J s : 5 J ^ X.J ( ..` ..' H L  .( J L L P L L L L P H L J ",
"F ^ ( J 6 % < s Z A c l A S J J ^ ) ) / ^ ( ' %.-.X.` ` ^ J H J A F H J s 2 5 F ) ' ^ ' o.+.) ` ^ ) P L ^ J J ^ L L L J P J L L ",
"L P ) ^ 9 % : A J k k k F L k m / Q E / ^ ) $.-.0...^ _ P J J J J L F F p 2 5 H P +.' ^ ` ) P ^ ) ^ ^ L ) L H P F H J J J J J ^ ",
"L ( +.' 9 : < A ) F H A L J J R _ } / ' / $._ 1.;.7.+.L P J F ^ P J L A p , 5 H ^ ' J L ` ^ L L ` L ^ ^ L H H H A H L L F H J L ",
"H L X.' 9 : : Z R x A A J J J H ^ ` R W ^ -.X.$.3.7.1.` ( ( J G P L P F p < 5 V P J J A H J ^ ) ` ^ J ^ J L D A A L ^ ^ J H J L ",
"J ) ' ^ 9 : < B x Z J J J ) R R ^ ' ` ;.8.1.r.r.%.8.-...` ^ J L P ( ` H 9 2 5 k D H R Z H F H ^ ) ^ F H H H A A L A H J J L J P ",
"^ ' _ ` 5 ; < k ` L J L P P L ^ ) ' ' ;.1.%.8.,.+.^ / ) ` P P ^ P ` ..J s : 2 j H F / J F H F J L L H A A F F A J F L L P J A ^ ",
"_ ' %...5 ; : j P ( H L L P P J J / ` ' ' ` X.) ' ^ W b J ^ ( P L ^ ^ L p ; 2 Z F ^ ~ Z Z A J H H H J H Z A F A H J ^ P H H G J ",
"G J ^ ^ 3 + : k J ^ ^ L P ( ^ ^ ) $.' ' X.' $.-.r.4.' R x R W P L J L L 8 $ 3 x F R A F Z A H A H J J H B A F H H F F J F H J J ",
"^ A W A % . $ j H _ ..^ ` ^ ) %.{ %.4.;.4.) %.7.r.q./ / E Y c J F J A A 5 + $ 6 j A A H F J J ^ J A F H Z Z x Z k A Z A R S F F ",
"Z Z p < . o o 2 j J F H ^ P A ' ' =.;.%.X.%.) J A _ _ Y M S l v k Z j p % o o % 6 s j j H k k L k Z A Z A j a p p A h Z k h A J ",
"5 6 : o - ; o + 9 B A V H A H H H J ' ' J H J A k k k S S x c l a s 6 : + o ; o % 3 9 5 5 3 5 5 5 9 9 3 6 3 6 6 3 3 3 i 6 t t 9 ",
": : % + $ + $ $ : 5 s p s 9 j s p 9 p 9 5 9 p 5 5 6 r t 3 6 y r 3 3 % : % % : % $ ; : : : : ; ; % $ + + o o + + % % : : , , % < ",
"9 p p p s 9 9 8 9 p p p s s s 9 6 * # o . o . o - 2 6 p p i r p 9 6 6 5 5 5 5 5 7 8 8 9 9 9 8 8 7 3 ; @ + $ $ ; 2 8 9 9 p p 6 9 ",
"/ _ _ / %.P ( P ^  .^ ) ) ) ) ' / a * o   o . ; p K ^ J J J F J Z A Z A F F J L ^ P J F A L L L J L j , $ $ ; 9 B A H A J H J ` ",
"/ ' ' ^ X.( ..' ^ X...%.' %.4.=.=./ p # @ X + p ) =.$./ J H ^ ^ J L ^ ^ ( ^ ` ' ) %.' W / ) ' ^ / ' ' j : ; 9 k F A A J J ^ ' $.",
"/ ~ ^ J / ^ ^ L J J X.' ..+.-._ ] } / < ; $ < A ^ } ' ^ H A ^ J H H J L ) ` ^ ^ L ' / J ^ ^ L ^ ^ / ^ J 8 3 j L L J B k Z R / / ",
"H F F F H Z F G S A ( ^ J ' -.$.W ] / 6 o + 8 J L / ~ R J H A J H J J A J ^ P A A ~ ^ H F A H ^ W W / _ s p F ^ P J V j s Z H ^ ",
"J J A ^ H H H F R ^ J J / ) X.#.{ ] } p + $ 5 j A J F J ^ H A H H H F Z H J P H A A A A A v c b c M N / j s F F V F B s k A B F ",
"Z A J R b c G J J ^ ^ ` ^ ~ ) X.' =.} 9 o o 2 D k Z A ^ ) A x A J J F F H F D H B Z k k Z Z z c x v ! ' B s H F A A F j s B j A ",
"k k A c z v R J W ^ ) / ^ ) ' ' $.>./ 8 o o 5 A k S S H H j k A R J A D K K A F B B B a k u z G Z A J / j 8 B F J Z A p s j j B ",
"k Z l g c G R R J H ^ ^ ) ` ' X.4.8.L 5 $ o 2 B Z G c A A a k A A F J j A F B F k Z A k p y y k a c b Y t 6 k A H A F k k Z Z B ",
"j x x f b S J ' E / ` ' ..%.;.^ ' 4.^ 6 $ + 3 B F v c A k k j A A Z F B H A F F A k B p p p j a k F Y Y p s F H J J J F j j j k ",
"k k l y l A R ^ / W / ' ' %.%.X.' $.) 6 % + 3 A k k A S k x j k p a v A k j Z V V V k j k s k F H ^ ' W p h ^ L J H J L Z j j k ",
"A S n l c v b E W R ^ _ ) X.;...-.8.' 6 + $ t R A H B k Z k k k p r y j p k v a j A Z j V V l S J ' { J p s +.) L Z F A k B A F ",
"R R l l b R Y Y Y / { %.^ X.-.1.8.y.=.9 + @ < j J P Z j k A Z k h t h k a v x k F A k k A B a A F | } ^ p p ` ) L F A J A A L P ",
"/ R Q l l / ^ Q E Q ] ' ) %.4.7.8.t.o.p $ $ 3 k J A A F k S A Z j h x j k c k A A Z k Z J H A A J E ' / p j ) ' ^ ^ D J J J J F ",
"v Y E S ^ ' ' _ ' $.' { _ %.8.4.;.r.#.9 + o 6 A J H S J A J J J k a k k k j k k A B A J K B k k Z A ^ ~ s s _ / _ ^ ^ H S G A v ",
"c Y J J J J ^ ' { | { %.-.1.8.r.t.p.%.p o o 5 ..` F Z A A J L L B p k Z B k a k B j x F B F H S v ) _ / a a J E ] ' ) J F S F Y ",
"M F / ^ J ^ ^ ^ _ %.' ....` -.7.t.i.;.9 o o 6 ) ^ J A A Z F A J j l A Z B v A j j A A A A J H ^ J ' ^ / l w S Q E ^ ' J H J J T ",
"c c S J H / _ b Y ..' o.....8.4.3.r.1.9 o O 6 H A Z J D A G H H A z k x A A x k A D V j D D A J H ' _ J y y / Y Y J J J R G S A ",
"x b c l M E R Y G J ^ ^ X.o.1.,.$.4.%.9 o O 6 A R J L J L J P J J A A A H F x j B V j B A B H J ~ ^ #.Q h x R v W / J J S Y W G ",
"F M z l Y c c F J A J ( ` ' %.%.r.$.' p % @ 3 Z ^ P L J L ^ J H J J A F A x Z B k B s k F F J ) _ ' } T r k R / ' R J A v H J F ",
"A y u z b U A A J ^ ^ ( ` ) _ X.;._ $.9 + @ 8 L X.^ L L L L H F L J A B V v S F A A A A J J / ' X./ ] Y y l { ^ Q F S x v A x S ",
"v a u b A v A J F J ^ ) ^ J ^ ..7.r.%.5 $ # 8 J ) ) ^ L J H F B J L J V Z A A A A x x A Y b Y / { S Y T e y _ ^ N m S k d k j a ",
"B k x v v k Z L H J A ` / ^ ^ ' 7.r.%.9 o + 5 L ..+.` L J J H H H L J H J J F k x x h x l l v Y b Y ] W a y F L J A F Z a a j j ",
"A k A x x k A R H L H P ^ ^ ^ _ $.,.` 9 o o 8 L ..-.) L F H F D F H A G H H J A A Y v f c S x k b Y W ^ s t v ^ ^ H H F A p j x ",
"u x A Z F Z v ^ P ~ ^ H ^ ` / W ' %.' p o X 9 P +.o.' P A Z H H J L H J J A F Z Z F A k x Z A Y Q J ^ ^ p i A ^ J H Z v k k a a ",
"c F F A x k F ^ ^ P ( ' ` ` ) X.' X.X.s X X 8 P @.-.^ H A A F J H J ^ P J A H S J J F F A x S m b / ) A 3 r L P H A j x h k c a ",
"Z J F v v A A ^ ) ( ( ^ ` ` +.' ' ' ^ 8 + X 7 ( ( ) ^ H F H F J L L ^ ( P L R W P L A S G S R H J ^ L R r p F A F _ F A j j x k ",
"j A v S F J J ^ ' ) +.+.%.$.%._ ;.) F 2 X X 2 V B P ' L A H H A H ^ ^ ) ) ^ ^ L A F A F S H J L ^ ~ A F 9 8 F _ / $.J A B Z S S ",
"F k k H F F F J J J X.;.' _ -.^ ^ J s $ o . $ 9 A F L J A B A j A J ) ^ H L H ^ H F J A S x J J R Y Z p $ $ B =.} R x J J A A Z ",
"H F F Z k k k H A A H J F Z J J F s ; o o o X ; s s k s p p p 6 p Z A Z Z Z j ^ ^ x j s p k k k A p r : .   : p v x x V B a p k ",
"< 5 6 3 3 3 < 5 5 3 5 3 3 3 3 3 3 $ X - : : o . o : 3 < , < , : , 3 5 2 6 6 3 5 6 3 < , , 3 , 3 5 , % o o X . + 3 6 9 9 2 < , 2 ",
"$ + o . . o o . . . . . . o o . o X $ > > 2 ; - $ o o o o o o o o o . . . . o o o o $ : % # # # % & % $ + o $ $ % > : ; : % - ; "
};
